<svg width="24" height="24" viewBox="0 0 24 24" fill="none" xmlns="http://www.w3.org/2000/svg">
  <defs>
    <linearGradient id="datacenterGradient" x1="0%" y1="0%" x2="100%" y2="100%">
      <stop offset="0%" style="stop-color:#6B7280;stop-opacity:1" />
      <stop offset="100%" style="stop-color:#374151;stop-opacity:1" />
    </linearGradient>
  </defs>
  
  <!-- Server rack -->
  <rect x="6" y="4" width="12" height="16" fill="url(#datacenterGradient)"/>
  
  <!-- Server units -->
  <rect x="7" y="6" width="10" height="2" fill="white"/>
  <rect x="7" y="9" width="10" height="2" fill="white"/>
  <rect x="7" y="12" width="10" height="2" fill="white"/>
  <rect x="7" y="15" width="10" height="2" fill="white"/>
  
  <!-- Server indicators -->
  <circle cx="9" cy="7" r="0.5" fill="#374151"/>
  <circle cx="9" cy="10" r="0.5" fill="#374151"/>
  <circle cx="9" cy="13" r="0.5" fill="#374151"/>
  <circle cx="9" cy="16" r="0.5" fill="#374151"/>
  
  <!-- Network connections -->
  <path d="M4 8 L6 8" stroke="white" stroke-width="1"/>
  <path d="M4 11 L6 11" stroke="white" stroke-width="1"/>
  <path d="M4 14 L6 14" stroke="white" stroke-width="1"/>
  <path d="M18 8 L20 8" stroke="white" stroke-width="1"/>
  <path d="M18 11 L20 11" stroke="white" stroke-width="1"/>
  <path d="M18 14 L20 14" stroke="white" stroke-width="1"/>
  
  <!-- Data flow -->
  <path d="M8 20 L12 22 L16 20" stroke="white" stroke-width="1" stroke-linecap="round"/>
</svg>
