<svg width="600" height="400" viewBox="0 0 600 400" fill="none" xmlns="http://www.w3.org/2000/svg">
  <defs>
    <linearGradient id="networkGradient" x1="0%" y1="0%" x2="100%" y2="100%">
      <stop offset="0%" style="stop-color:#3b82f6;stop-opacity:1" />
      <stop offset="50%" style="stop-color:#1d4ed8;stop-opacity:1" />
      <stop offset="100%" style="stop-color:#1e40af;stop-opacity:1" />
    </linearGradient>
    <filter id="glow">
      <feGaussianBlur stdDeviation="3" result="coloredBlur"/>
      <feMerge> 
        <feMergeNode in="coloredBlur"/>
        <feMergeNode in="SourceGraphic"/>
      </feMerge>
    </filter>
  </defs>
  
  <!-- Background Grid -->
  <pattern id="grid" width="40" height="40" patternUnits="userSpaceOnUse">
    <path d="M 40 0 L 0 0 0 40" fill="none" stroke="rgba(59, 130, 246, 0.1)" stroke-width="1"/>
  </pattern>
  <rect width="600" height="400" fill="url(#grid)"/>
  
  <!-- Central Hub -->
  <circle cx="300" cy="200" r="40" fill="url(#networkGradient)" filter="url(#glow)" class="animate-pulse-slow"/>
  <circle cx="300" cy="200" r="30" fill="white" opacity="0.9"/>
  <circle cx="300" cy="200" r="20" fill="url(#networkGradient)"/>
  
  <!-- Network Nodes -->
  <circle cx="100" cy="100" r="15" fill="#3b82f6" opacity="0.8" class="animate-network-pulse"/>
  <circle cx="500" cy="100" r="15" fill="#3b82f6" opacity="0.8" class="animate-network-pulse"/>
  <circle cx="100" cy="300" r="15" fill="#3b82f6" opacity="0.8" class="animate-network-pulse"/>
  <circle cx="500" cy="300" r="15" fill="#3b82f6" opacity="0.8" class="animate-network-pulse"/>
  <circle cx="200" cy="50" r="12" fill="#1d4ed8" opacity="0.7" class="animate-network-pulse"/>
  <circle cx="400" cy="50" r="12" fill="#1d4ed8" opacity="0.7" class="animate-network-pulse"/>
  <circle cx="200" cy="350" r="12" fill="#1d4ed8" opacity="0.7" class="animate-network-pulse"/>
  <circle cx="400" cy="350" r="12" fill="#1d4ed8" opacity="0.7" class="animate-network-pulse"/>
  
  <!-- Connection Lines -->
  <path d="M 300 200 L 100 100" stroke="url(#networkGradient)" stroke-width="2" opacity="0.6" class="animate-data-flow"/>
  <path d="M 300 200 L 500 100" stroke="url(#networkGradient)" stroke-width="2" opacity="0.6" class="animate-data-flow"/>
  <path d="M 300 200 L 100 300" stroke="url(#networkGradient)" stroke-width="2" opacity="0.6" class="animate-data-flow"/>
  <path d="M 300 200 L 500 300" stroke="url(#networkGradient)" stroke-width="2" opacity="0.6" class="animate-data-flow"/>
  <path d="M 300 200 L 200 50" stroke="url(#networkGradient)" stroke-width="2" opacity="0.5" class="animate-data-flow"/>
  <path d="M 300 200 L 400 50" stroke="url(#networkGradient)" stroke-width="2" opacity="0.5" class="animate-data-flow"/>
  <path d="M 300 200 L 200 350" stroke="url(#networkGradient)" stroke-width="2" opacity="0.5" class="animate-data-flow"/>
  <path d="M 300 200 L 400 350" stroke="url(#networkGradient)" stroke-width="2" opacity="0.5" class="animate-data-flow"/>
  
  <!-- Data Flow Particles -->
  <circle cx="200" cy="150" r="3" fill="#3b82f6" class="animate-data-flow"/>
  <circle cx="400" cy="150" r="3" fill="#3b82f6" class="animate-data-flow"/>
  <circle cx="200" cy="250" r="3" fill="#3b82f6" class="animate-data-flow"/>
  <circle cx="400" cy="250" r="3" fill="#3b82f6" class="animate-data-flow"/>
  
  <!-- Floating Elements -->
  <rect x="50" y="50" width="20" height="20" rx="4" fill="#3b82f6" opacity="0.6" class="animate-float"/>
  <rect x="530" y="80" width="15" height="15" rx="3" fill="#1d4ed8" opacity="0.6" class="animate-float"/>
  <rect x="60" y="320" width="18" height="18" rx="4" fill="#1e40af" opacity="0.6" class="animate-float"/>
  <rect x="520" y="300" width="16" height="16" rx="3" fill="#3b82f6" opacity="0.6" class="animate-float"/>
  
  <!-- Status Indicators -->
  <circle cx="280" cy="180" r="4" fill="#10b981" class="animate-pulse-slow"/>
  <circle cx="320" cy="180" r="4" fill="#10b981" class="animate-pulse-slow"/>
  <circle cx="300" cy="220" r="4" fill="#10b981" class="animate-pulse-slow"/>
</svg>
