<svg width="24" height="24" viewBox="0 0 24 24" fill="none" xmlns="http://www.w3.org/2000/svg">
  <defs>
    <linearGradient id="poolGradient" x1="0%" y1="0%" x2="100%" y2="100%">
      <stop offset="0%" style="stop-color:#6B7280;stop-opacity:1" />
      <stop offset="100%" style="stop-color:#374151;stop-opacity:1" />
    </linearGradient>
  </defs>
  
  <!-- Network nodes -->
  <circle cx="8" cy="8" r="2" fill="white"/>
  <circle cx="16" cy="8" r="2" fill="white"/>
  <circle cx="12" cy="16" r="2" fill="white"/>
  <circle cx="4" cy="12" r="1.5" fill="white"/>
  <circle cx="20" cy="12" r="1.5" fill="white"/>
  <circle cx="12" cy="4" r="1.5" fill="white"/>
  <circle cx="12" cy="20" r="1.5" fill="white"/>
  
  <!-- Connection lines -->
  <path d="M8 8 L16 8" stroke="white" stroke-width="1"/>
  <path d="M8 8 L12 16" stroke="white" stroke-width="1"/>
  <path d="M16 8 L12 16" stroke="white" stroke-width="1"/>
  <path d="M4 12 L8 8" stroke="white" stroke-width="1" opacity="0.7"/>
  <path d="M20 12 L16 8" stroke="white" stroke-width="1" opacity="0.7"/>
  <path d="M12 4 L8 8" stroke="white" stroke-width="1" opacity="0.7"/>
  <path d="M12 4 L16 8" stroke="white" stroke-width="1" opacity="0.7"/>
  <path d="M12 20 L12 16" stroke="white" stroke-width="1" opacity="0.7"/>
  
  <!-- Growth arrows -->
  <path d="M6 6 L8 8" stroke="white" stroke-width="1" stroke-linecap="round"/>
  <path d="M18 6 L16 8" stroke="white" stroke-width="1" stroke-linecap="round"/>
  <path d="M12 14 L12 16" stroke="white" stroke-width="1" stroke-linecap="round"/>
</svg>
