<svg width="24" height="24" viewBox="0 0 24 24" fill="none" xmlns="http://www.w3.org/2000/svg">
  <defs>
    <linearGradient id="unlimitedGradient" x1="0%" y1="0%" x2="100%" y2="100%">
      <stop offset="0%" style="stop-color:#6B7280;stop-opacity:1" />
      <stop offset="100%" style="stop-color:#374151;stop-opacity:1" />
    </linearGradient>
  </defs>
  
  <!-- Infinity symbol -->
  <path d="M6 12 C6 8 8 6 12 6 C16 6 18 8 18 12 C18 16 16 18 12 18 C8 18 6 16 6 12 Z" fill="none" stroke="white" stroke-width="2"/>
  <path d="M18 12 C18 8 16 6 12 6 C8 6 6 8 6 12 C6 16 8 18 12 18 C16 18 18 16 18 12 Z" fill="none" stroke="white" stroke-width="2"/>
  
  <!-- Network nodes -->
  <circle cx="6" cy="12" r="1.5" fill="white"/>
  <circle cx="18" cy="12" r="1.5" fill="white"/>
  <circle cx="12" cy="6" r="1.5" fill="white"/>
  <circle cx="12" cy="18" r="1.5" fill="white"/>
  
  <!-- Connection lines -->
  <path d="M6 12 L18 12" stroke="white" stroke-width="1" opacity="0.7"/>
  <path d="M12 6 L12 18" stroke="white" stroke-width="1" opacity="0.7"/>
  
  <!-- Data flow -->
  <circle cx="12" cy="12" r="0.5" fill="white"/>
</svg>
